<svg width="21" height="20" viewBox="0 0 21 20" fill="none" xmlns="http://www.w3.org/2000/svg">
<path d="M13.4377 12C14.7638 12 16.0356 12.5268 16.9733 13.4645C17.911 14.4021 18.4377 15.6739 18.4377 17V18C18.4377 18.5304 18.227 19.0391 17.852 19.4142C17.4769 19.7893 16.9682 20 16.4377 20H2.43774C1.90731 20 1.3986 19.7893 1.02353 19.4142C0.648458 19.0391 0.437744 18.5304 0.437744 18V17C0.437744 15.6739 0.964528 14.4021 1.90221 13.4645C2.83989 12.5268 4.11166 12 5.43774 12H13.4377ZM18.8517 7.081C19.0313 6.89975 19.2733 6.79397 19.5283 6.78532C19.7833 6.77667 20.0319 6.8658 20.2233 7.03447C20.4147 7.20313 20.5344 7.43858 20.5579 7.69262C20.5814 7.94666 20.507 8.20008 20.3497 8.401L20.2657 8.496L17.4377 11.324C17.2656 11.4962 17.0365 11.5996 16.7934 11.6149C16.5504 11.6302 16.3101 11.5563 16.1177 11.407L16.0237 11.324L14.6097 9.91C14.4285 9.73046 14.3227 9.48843 14.3141 9.23345C14.3054 8.97847 14.3945 8.72983 14.5632 8.53842C14.7319 8.34701 14.9673 8.2273 15.2214 8.2038C15.4754 8.18029 15.7288 8.25478 15.9297 8.412L16.0237 8.496L16.7307 9.203L18.8517 7.081ZM9.43774 0C10.7638 0 12.0356 0.526784 12.9733 1.46447C13.911 2.40215 14.4377 3.67392 14.4377 5C14.4377 6.32608 13.911 7.59785 12.9733 8.53553C12.0356 9.47322 10.7638 10 9.43774 10C8.11166 10 6.83989 9.47322 5.90221 8.53553C4.96453 7.59785 4.43774 6.32608 4.43774 5C4.43774 3.67392 4.96453 2.40215 5.90221 1.46447C6.83989 0.526784 8.11166 0 9.43774 0Z" fill="#8E8E8E"/>
</svg>
