<svg width="23" height="28" viewBox="0 0 23 28" fill="none" xmlns="http://www.w3.org/2000/svg">
<path d="M11.5007 1C11.0385 1.00053 10.5953 1.18424 10.2683 1.51088C9.9413 1.83752 9.75708 2.28046 9.75602 2.74267H2.47402C1.86469 2.74267 1.37402 3.23267 1.37402 3.842V25.9013C1.37402 26.51 1.86469 27 2.47402 27H20.526C21.1354 27 21.626 26.51 21.626 25.9013V3.84133C21.626 3.23267 21.1354 2.74267 20.526 2.74267H13.2454C13.2443 2.28046 13.0601 1.83752 12.7331 1.51088C12.406 1.18424 11.9629 1.00053 11.5007 1Z" stroke="#848B8B" stroke-linecap="round" stroke-linejoin="round"/>
<path d="M15.4907 2.74316V4.99116H7.51068V2.74316" stroke="#848B8B" stroke-linecap="round" stroke-linejoin="round"/>
<path d="M6.97333 8.11084H16.0273M6.97333 10.9588H16.0273M4.37933 13.9222H5.07533C5.68467 13.9222 6.05667 14.4235 6.17467 15.0208L7.188 20.1515C7.40133 21.2328 8.01467 21.7155 9.05467 21.7155H14.24C15.2807 21.7155 15.8933 21.2328 16.1073 20.1515L17.0687 15.2835L17.092 15.1655H6.23667M10.55 17.0308H13.0567M14.336 23.6755C14.336 23.8109 14.2822 23.9408 14.1864 24.0366C14.0907 24.1324 13.9608 24.1862 13.8253 24.1862C13.6899 24.1862 13.56 24.1324 13.4642 24.0366C13.3685 23.9408 13.3147 23.8109 13.3147 23.6755C13.3147 23.5401 13.3685 23.4102 13.4642 23.3144C13.56 23.2186 13.6899 23.1648 13.8253 23.1648C13.9608 23.1648 14.0907 23.2186 14.1864 23.3144C14.2822 23.4102 14.336 23.5401 14.336 23.6755ZM10.0207 23.6755C10.0207 23.8109 9.96686 23.9408 9.8711 24.0366C9.77533 24.1324 9.64544 24.1862 9.51 24.1862C9.37456 24.1862 9.24467 24.1324 9.1489 24.0366C9.05314 23.9408 8.99933 23.8109 8.99933 23.6755C8.99933 23.3935 9.228 23.1648 9.51 23.1648C9.792 23.1648 10.0207 23.3935 10.0207 23.6755Z" stroke="#848B8B" stroke-linecap="round" stroke-linejoin="round"/>
</svg>
