<svg width="212" height="314" viewBox="0 0 212 314" fill="none" xmlns="http://www.w3.org/2000/svg">
<path d="M181.704 121.672C178.603 124.466 176.952 128.524 177.213 132.676L182.523 216.182C182.523 216.182 184.097 229.052 172.801 229.052C161.503 229.052 163.077 216.182 163.077 216.182L168.37 132.676C168.634 128.524 166.983 124.466 163.879 121.672L162.676 120.593C159.344 117.583 157.692 113.138 158.278 108.678L163.756 66.4393C163.865 65.7143 164.481 65.1738 165.206 65.1738C166.009 65.1738 166.658 65.8065 166.673 66.6085L167.342 106.374C167.355 107.233 168.056 107.922 168.915 107.922H169.651C170.521 107.922 171.226 107.217 171.226 106.348V66.748C171.226 65.8791 171.932 65.1738 172.801 65.1738C173.67 65.1738 174.374 65.8791 174.374 66.748V106.348C174.374 107.217 175.079 107.922 175.948 107.922H176.685C177.543 107.922 178.244 107.233 178.258 106.374L178.927 66.6085C178.927 65.8065 179.59 65.1738 180.377 65.1738C181.119 65.1738 181.735 65.7143 181.827 66.4393L187.322 108.678C187.893 113.138 186.242 117.583 182.908 120.593L181.704 121.672Z" fill="#FE8C00"/>
<path d="M155.473 33.7108L157.555 35.7969L155.857 37.4942L153.77 35.4136L151.694 37.4942L149.991 35.7969L152.073 33.7108L149.977 31.6148L151.674 29.9176L153.77 32.0136L155.857 29.9319L157.555 31.6346L155.473 33.7108Z" fill="#FE8C00"/>
<path d="M165.068 20.0614C162.502 20.0614 160.418 17.9775 160.418 15.4146C160.418 12.8517 162.502 10.7634 165.068 10.7634C167.631 10.7634 169.716 12.8517 169.716 15.4146C169.716 17.9775 167.631 20.0614 165.068 20.0614ZM162.155 15.4146C162.155 17.0218 163.461 18.3246 165.068 18.3246C166.671 18.3246 167.979 17.0218 167.979 15.4146C167.979 13.8075 166.671 12.5002 165.068 12.5002C163.461 12.5002 162.155 13.8075 162.155 15.4146Z" fill="#FE8C00"/>
<rect x="175.653" y="31.8893" width="6.47714" height="6.4771" transform="rotate(-55.3773 175.653 31.8893)" fill="#FECFB7"/>
<path d="M164.029 44.4895C164.029 42.3078 165.797 40.5392 167.979 40.5392C170.16 40.5392 171.928 42.3078 171.928 44.4895C171.928 46.6712 170.16 48.4398 167.979 48.4398C165.797 48.4398 164.029 46.6712 164.029 44.4895Z" fill="#FECFB7"/>
<path d="M190.219 40.6589C190.219 39.1682 191.427 37.9587 192.918 37.9587C194.409 37.9587 195.618 39.1682 195.618 40.6589C195.618 42.1496 194.409 43.3591 192.918 43.3591C191.427 43.3591 190.219 42.1496 190.219 40.6589Z" fill="#FE8C00"/>
<path d="M14.4911 163.827C14.4911 162.403 15.6456 161.249 17.0682 161.249C18.4919 161.249 19.6454 162.403 19.6454 163.827C19.6454 165.25 18.4919 166.404 17.0682 166.404C15.6456 166.404 14.4911 165.25 14.4911 163.827Z" fill="#FECFB7"/>
<rect x="10.3663" y="150.574" width="6.17788" height="6.17787" transform="rotate(-34.6196 10.3663 150.574)" fill="#FE8C00"/>
<path d="M0.693481 162.716C0.693481 161.167 1.9502 159.911 3.49805 159.911C5.047 159.911 6.30145 161.167 6.30145 162.716C6.30145 164.265 5.047 165.52 3.49805 165.52C1.9502 165.52 0.693481 164.265 0.693481 162.716Z" fill="#FE8C00"/>
<path d="M187.441 130.39L191.578 234.329C191.641 235.907 192.601 237.15 193.723 237.106C194.672 237.068 195.458 236.109 195.613 234.796L201.53 185.106C201.916 181.863 200.734 178.589 198.624 177.054C196.777 175.712 195.617 173.014 195.646 170.125L196.03 130.47C196.065 126.97 193.98 124.079 191.492 124.178C189.122 124.273 187.308 127.054 187.441 130.39Z" fill="#FE8C00"/>
<path d="M131.436 47.4237H64.3283C57.2065 47.4237 51.3656 53.2646 51.3656 60.393V227.816C51.3656 234.951 57.2065 240.78 64.3283 240.78H131.436C138.564 240.78 144.405 234.951 144.405 227.816V60.393C144.405 53.2646 138.564 47.4237 131.436 47.4237ZM131.694 53.0965C135.866 53.0965 139.275 56.5118 139.275 60.6841V221.16C139.275 225.333 135.866 228.741 131.694 228.741H64.3745C60.2011 228.741 56.7869 225.333 56.7869 221.16V60.6841C56.7869 56.5118 60.2011 53.0965 64.3745 53.0965H131.694Z" fill="#29293D"/>
<path d="M131.434 47.1062H64.3281C57.0053 47.1062 51.048 53.0702 51.048 60.393V227.816C51.048 235.139 57.0053 241.096 64.3281 241.096H131.434C138.757 241.096 144.714 235.139 144.714 227.816V60.393C144.714 53.0702 138.757 47.1062 131.434 47.1062ZM144.087 227.816C144.087 234.79 138.408 240.462 131.434 240.462H64.3281C57.3546 240.462 51.6818 234.79 51.6818 227.816V60.393C51.6818 53.4195 57.3546 47.7401 64.3281 47.7401H131.434C138.408 47.7401 144.087 53.4195 144.087 60.393V227.816Z" fill="#CCCCCC"/>
<path d="M139.275 60.6841V221.16C139.275 225.332 135.865 228.741 131.694 228.741H64.3734C60.2011 228.741 56.7858 225.332 56.7858 221.16V60.6841C56.7858 56.5119 60.2011 53.0965 64.3734 53.0965H131.694C135.865 53.0965 139.275 56.5119 139.275 60.6841Z" fill="#FECFB7"/>
<path d="M90.8853 54.2599C91.9772 54.2599 92.8616 55.1442 92.8616 56.235C92.8616 57.3215 91.9772 58.2047 90.8853 58.2047C89.8 58.2047 88.9156 57.3215 88.9156 56.235C88.9156 55.1442 89.8 54.2599 90.8853 54.2599Z" fill="#3B414B"/>
<path d="M106.782 56.0461C106.782 56.9711 105.993 57.7279 105.017 57.7279C104.047 57.7279 103.25 56.9711 103.25 56.0461C103.25 55.1211 104.047 54.3642 105.017 54.3642C105.993 54.3642 106.782 55.1211 106.782 56.0461Z" fill="#515760"/>
<path d="M100.952 55.2387V56.2361C100.952 56.7788 100.517 57.2138 99.9733 57.2138H96.1053C95.5693 57.2138 95.1266 56.7788 95.1266 56.2361V55.2387C95.1266 54.7026 95.5693 54.2599 96.1053 54.2599H99.9733C100.517 54.2599 100.952 54.7026 100.952 55.2387Z" fill="#1A1F29"/>
<path d="M92.8617 56.2361C92.8617 55.1442 91.9774 54.2599 90.8854 54.2599C89.799 54.2599 88.9158 55.1442 88.9158 56.2361C88.9158 57.3215 89.799 58.2058 90.8854 58.2058C91.9774 58.2058 92.8617 57.3215 92.8617 56.2361ZM99.9736 54.2599H96.1057C95.5685 54.2599 95.1269 54.7026 95.1269 55.2387V56.2361C95.1269 56.7788 95.5685 57.2138 96.1057 57.2138H99.9736C100.516 57.2138 100.952 56.7788 100.952 56.2361V55.2387C100.952 54.7026 100.516 54.2599 99.9736 54.2599ZM83.1979 53.0987H112.989C112.989 53.0987 109.782 53.6546 109.757 56.6646C109.725 59.6702 107.201 60.181 104.936 60.181H98.0929H91.2512C88.985 60.181 86.4605 59.6702 86.4286 56.6646C86.4045 53.6546 83.1979 53.0987 83.1979 53.0987ZM105.017 54.3675C104.045 54.3675 103.25 55.1189 103.25 56.0461C103.25 56.9743 104.045 57.7258 105.017 57.7258C105.996 57.7258 106.784 56.9743 106.784 56.0461C106.784 55.1189 105.996 54.3675 105.017 54.3675Z" fill="#3E394F"/>
<path d="M141.157 59.9986V221.16H139.274V60.6841C139.274 56.5118 135.866 53.0965 131.693 53.0965H64.3743C60.2009 53.0965 56.7856 56.5118 56.7856 60.6841V221.16H55.0192V59.9986C55.0192 54.4158 59.5934 49.8558 65.1619 49.8558H131.015C136.597 49.8558 141.157 54.4158 141.157 59.9986Z" fill="#3E394F"/>
<path d="M141.157 221.16V228.192C141.157 233.768 136.597 238.335 131.015 238.335H65.1619C59.5934 238.335 55.0192 233.768 55.0192 228.192V221.16H56.7856C56.7856 225.332 60.2009 228.741 64.3743 228.741H131.693C135.866 228.741 139.274 225.332 139.274 221.16H141.157Z" fill="#3E394F"/>
<path d="M130.454 273.052C130.454 273.052 104.53 211.233 142.782 176.243C142.782 176.243 132.63 117.687 142.782 109.529C152.935 101.372 159.823 130.74 176.139 223.741L211.261 271.601L211.306 313.262H148.165L130.454 273.052Z" fill="#FFA9A9"/>
<path d="M51.1413 164.823H41.895C37.358 164.823 33.6461 161.111 33.6461 156.574C33.6461 152.037 37.358 148.325 41.895 148.325H51.1413C55.6782 148.325 59.3902 152.037 59.3902 156.574C59.3902 161.111 55.6782 164.823 51.1413 164.823Z" fill="#FFA9A9"/>
<path d="M49.3729 184.13H40.5802C35.271 184.13 30.9274 179.786 30.9274 174.476C30.9274 169.166 35.271 164.823 40.5802 164.823H49.3729C54.6821 164.823 59.0268 169.166 59.0268 174.476C59.0268 179.786 54.6821 184.13 49.3729 184.13Z" fill="#FFA9A9"/>
<path d="M49.7365 203.437H40.9438C35.6346 203.437 31.2899 199.093 31.2899 193.784C31.2899 188.474 35.6346 184.13 40.9438 184.13H49.7365C55.0457 184.13 59.3904 188.474 59.3904 193.784C59.3904 199.093 55.0457 203.437 49.7365 203.437Z" fill="#FFA9A9"/>
<path d="M51.549 219.934H42.3036C37.7667 219.934 34.0548 216.222 34.0548 211.685C34.0548 207.148 37.7667 203.436 42.3036 203.436H51.549C56.0859 203.436 59.7978 207.148 59.7978 211.685C59.7978 216.222 56.0859 219.934 51.549 219.934Z" fill="#FFA9A9"/>
<g style="mix-blend-mode:multiply">
<mask id="mask0_688_1757" style="mask-type:alpha" maskUnits="userSpaceOnUse" x="40" y="70" width="39" height="39">
<rect x="40.6725" y="70.4511" width="38.3091" height="38.3092" fill="#FC6011"/>
</mask>
<g mask="url(#mask0_688_1757)">
<path d="M71.6216 108.76H48.0306C43.9836 108.76 40.6715 105.449 40.6715 101.401V77.8113C40.6715 73.7632 43.9836 70.4511 48.0306 70.4511H71.6216C75.6697 70.4511 78.9807 73.7632 78.9807 77.8113V101.401C78.9807 105.449 75.6697 108.76 71.6216 108.76Z" fill="#FE8C00"/>
</g>
</g>
<g style="mix-blend-mode:multiply">
<path d="M113.996 107.966H90.4051C86.3582 107.966 83.046 104.654 83.046 100.607V77.016C83.046 72.9679 86.3582 69.6558 90.4051 69.6558H113.996C118.044 69.6558 121.355 72.9679 121.355 77.016V100.607C121.355 104.654 118.044 107.966 113.996 107.966Z" fill="#FE8C00"/>
</g>
<g style="mix-blend-mode:multiply">
<path d="M70.7478 156.194H47.1557C43.1076 156.194 39.7955 152.882 39.7955 148.835V125.244C39.7955 121.197 43.1076 117.885 47.1557 117.885H70.7478C74.7959 117.885 78.1058 121.197 78.1058 125.244V148.835C78.1058 152.882 74.7959 156.194 70.7478 156.194Z" fill="#FE8C00"/>
</g>
<g style="mix-blend-mode:multiply">
<path d="M113.122 155.4H89.5307C85.4826 155.4 82.1705 152.089 82.1705 148.041V124.451C82.1705 120.403 85.4826 117.09 89.5307 117.09H113.122C117.17 117.09 120.481 120.403 120.481 124.451V148.041C120.481 152.089 117.17 155.4 113.122 155.4Z" fill="#FE8C00"/>
</g>
<g style="mix-blend-mode:multiply">
<path d="M113.122 201.97H89.5307C85.4826 201.97 82.1705 198.658 82.1705 194.611V171.02C82.1705 166.973 85.4826 163.66 89.5307 163.66H113.122C117.17 163.66 120.481 166.973 120.481 171.02V194.611C120.481 198.658 117.17 201.97 113.122 201.97Z" fill="#FE8C00"/>
</g>
<rect x="86.2362" y="190.017" width="29.2529" height="2.14983" fill="white"/>
<path d="M98.1554 171.65C98.1554 170.339 99.2331 169.268 100.547 169.268C101.867 169.268 102.931 170.339 102.931 171.65C102.931 172.972 101.867 174.035 100.547 174.035C99.2331 174.035 98.1554 172.972 98.1554 171.65Z" fill="white"/>
<path d="M114.918 188.453H87.1888C87.1888 188.453 86.0715 175.018 100.866 175.425C109.76 175.668 113.043 180.31 114.238 183.984C115.043 186.429 114.918 188.453 114.918 188.453Z" fill="white"/>
<path d="M114.857 16.7417C115.061 29.6274 98.1256 43.7381 98.1256 43.7381C79.433 27.0635 81.384 16.7417 81.384 16.7417C81.384 7.4964 88.8803 0 98.1256 0C107.37 0 114.857 7.4964 114.857 16.7417ZM106.565 16.7417C106.565 12.0806 102.788 8.30272 98.1256 8.30272C93.4646 8.30272 89.6878 12.0806 89.6878 16.7417C89.6878 21.3928 93.4646 25.1707 98.1256 25.1707C102.788 25.1707 106.565 21.3928 106.565 16.7417Z" fill="#CA9744"/>
<path d="M99.6537 95.7163C99.6537 119.293 80.5393 138.426 56.9428 138.426C33.3485 138.426 14.2318 119.293 14.2318 95.7163C14.2318 72.1209 33.3485 53.0053 56.9428 53.0053V95.7163H99.6537Z" fill="#CA9744"/>
<path d="M93.502 95.7163C93.502 115.896 77.1404 132.276 56.9428 132.276C36.7441 132.276 20.3824 115.896 20.3824 95.7163C20.3824 75.5176 36.7441 59.1571 56.9428 59.1571V95.7163H93.502Z" fill="#EDAC4A"/>
<path d="M49.6265 76.2305C49.6265 79.6613 46.8461 82.4417 43.4153 82.4417C39.9857 82.4417 37.2042 79.6613 37.2042 76.2305C37.2042 72.8009 39.9857 70.0205 43.4153 70.0205C46.8461 70.0205 49.6265 72.8009 49.6265 76.2305Z" fill="#F25C5C"/>
<path d="M41.9687 109.24C41.9687 112.412 39.3981 114.983 36.2255 114.983C33.0552 114.983 30.4835 112.412 30.4835 109.24C30.4835 106.069 33.0552 103.497 36.2255 103.497C39.3981 103.497 41.9687 106.069 41.9687 109.24Z" fill="#F25C5C"/>
<path d="M48.9026 99.7326C48.9026 101.247 47.6744 102.477 46.1595 102.477C44.6436 102.477 43.4154 101.247 43.4154 99.7326C43.4154 98.2177 44.6436 96.9884 46.1595 96.9884C47.6744 96.9884 48.9026 98.2177 48.9026 99.7326Z" fill="#F25C5C"/>
<path d="M53.0714 116.45C53.0714 118.6 51.3292 120.342 49.1794 120.342C47.0295 120.342 45.2872 118.6 45.2872 116.45C45.2872 114.3 47.0295 112.558 49.1794 112.558C51.3292 112.558 53.0714 114.3 53.0714 116.45Z" fill="#F25C5C"/>
<path d="M70.2987 106.305C70.2987 108.42 68.585 110.133 66.4714 110.133C64.3568 110.133 62.642 108.42 62.642 106.305C62.642 104.19 64.3568 102.477 66.4714 102.477C68.585 102.477 70.2987 104.19 70.2987 106.305Z" fill="#F25C5C"/>
<path d="M82.2948 109.176C82.2948 111.043 80.781 112.558 78.9135 112.558C77.0461 112.558 75.5311 111.043 75.5311 109.176C75.5311 107.308 77.0461 105.793 78.9135 105.793C80.781 105.793 82.2948 107.308 82.2948 109.176Z" fill="#F25C5C"/>
<path d="M96.0759 92.9337H60.3461V57.2039C80.0845 57.2039 96.0759 73.1942 96.0759 92.9337Z" fill="#CA9744"/>
<path d="M90.9314 92.9337H60.3461V62.3495C77.2437 62.3495 90.9314 76.0361 90.9314 92.9337Z" fill="#EDAC4A"/>
<path d="M76.9998 74.5673C76.9998 77.1621 74.8972 79.2647 72.3035 79.2647C69.7077 79.2647 67.6051 77.1621 67.6051 74.5673C67.6051 71.9726 69.7077 69.8711 72.3035 69.8711C74.8972 69.8711 76.9998 71.9726 76.9998 74.5673Z" fill="#F25C5C"/>
<path d="M70.3098 85.3143C70.3098 87.24 68.7477 88.8021 66.822 88.8021C64.8962 88.8021 63.3341 87.24 63.3341 85.3143C63.3341 83.3886 64.8962 81.8275 66.822 81.8275C68.7477 81.8275 70.3098 83.3886 70.3098 85.3143Z" fill="#F25C5C"/>
<path d="M83.4055 88.8022C83.4055 90.2369 82.2422 91.4002 80.8086 91.4002C79.3728 91.4002 78.2106 90.2369 78.2106 88.8022C78.2106 87.3675 79.3728 86.2041 80.8086 86.2041C82.2422 86.2041 83.4055 87.3675 83.4055 88.8022Z" fill="#F25C5C"/>
<path d="M36.5123 88.2946C34.6943 86.4084 32.8772 84.5212 31.0603 82.635C30.6033 82.1615 29.6816 82.2922 29.3005 82.7888C28.85 83.3721 28.9687 84.0444 29.4531 84.5486C31.2701 86.4348 33.0893 88.3221 34.9052 90.2083C35.36 90.6807 36.2839 90.551 36.665 90.0545C37.1143 89.4712 36.9967 88.7989 36.5123 88.2946Z" fill="#CA9744"/>
<path d="M32.6026 94.4376C32.1731 93.8851 31.4491 93.7598 30.8614 94.1399L25.873 97.3652C25.3237 97.72 25.1742 98.589 25.5763 99.1064C26.0048 99.659 26.7287 99.7831 27.3164 99.4041C28.9796 98.3286 30.6428 97.2532 32.3048 96.1788C32.8542 95.824 33.0035 94.955 32.6026 94.4376Z" fill="#CA9744"/>
<path d="M42.7288 85.1177C42.0499 85.0243 41.4116 85.4352 41.2744 86.1206C40.8504 88.243 40.4263 90.3654 40.0034 92.4866C39.8737 93.1282 40.3439 93.851 41.0064 93.9422C41.6853 94.0356 42.3234 93.6247 42.4608 92.9392C42.8848 90.8169 43.3078 88.6945 43.7318 86.5721C43.8592 85.9317 43.3902 85.2088 42.7288 85.1177Z" fill="#CA9744"/>
<path d="M53.455 89.603C53.1694 88.9274 52.5278 88.6912 51.8478 88.8681C50.0726 89.3295 48.2985 89.7909 46.5222 90.2533C45.8883 90.4181 45.5434 91.2827 45.7883 91.8594C46.0729 92.535 46.7144 92.7722 47.3944 92.5954C49.1696 92.1329 50.9449 91.6715 52.7201 91.2101C53.3539 91.0443 53.7 90.1808 53.455 89.603Z" fill="#CA9744"/>
<path d="M53.8746 70.8323C53.8449 70.1787 53.1715 69.6108 52.5223 69.6965C51.8269 69.7887 51.3546 70.3501 51.3853 71.0499L51.6171 76.1427C51.6478 76.7963 52.3213 77.3653 52.9705 77.2785C53.6659 77.1863 54.1383 76.6249 54.1064 75.9251L53.8746 70.8323Z" fill="#CA9744"/>
<path d="M49.8605 63.7929C48.4708 64.0632 47.0834 64.3334 45.6937 64.6025C45.3575 64.6685 45.0741 64.7739 44.8456 65.0442C44.649 65.2792 44.5171 65.6473 44.5578 65.9559C44.6391 66.57 45.2246 67.2258 45.9112 67.0918C47.3008 66.8216 48.6894 66.5513 50.0779 66.2822C50.414 66.2163 50.6986 66.1108 50.926 65.8406C51.1227 65.6055 51.2555 65.2364 51.2127 64.9288C51.1325 64.3147 50.547 63.6589 49.8605 63.7929Z" fill="#CA9744"/>
<path d="M34.8668 71.196C34.2736 70.9455 33.464 71.1443 33.2037 71.7914C32.6609 73.1415 32.1183 74.4905 31.5756 75.8395C31.3318 76.4447 31.524 77.2313 32.171 77.5037C32.7642 77.7531 33.5739 77.5554 33.8353 76.9083C34.378 75.5582 34.9196 74.2092 35.4623 72.8591C35.7061 72.2538 35.5139 71.4684 34.8668 71.196Z" fill="#CA9744"/>
<path d="M28.1481 106.257C28.0404 105.614 27.4999 105.028 26.7947 105.121C26.1663 105.204 25.5445 105.784 25.6588 106.474C25.9686 108.326 26.2762 110.179 26.5848 112.03C26.6925 112.673 27.233 113.26 27.9394 113.165C28.5666 113.082 29.1884 112.503 29.0742 111.812C28.7655 109.961 28.4568 108.109 28.1481 106.257Z" fill="#CA9744"/>
<path d="M52.631 103.577C50.7394 104.003 48.8498 104.427 46.9593 104.851C46.6188 104.928 46.3442 105.014 46.1102 105.292C45.9146 105.527 45.7828 105.895 45.8234 106.204C45.9025 106.802 46.4936 107.493 47.1769 107.34C49.0674 106.916 50.9579 106.491 52.8486 106.067C53.188 105.99 53.4626 105.903 53.6966 105.625C53.8932 105.39 54.0251 105.022 53.9833 104.713C53.9042 104.116 53.3133 103.425 52.631 103.577Z" fill="#CA9744"/>
<path d="M59.2815 100.353C59.176 99.7095 58.6322 99.124 57.9291 99.2173C57.2975 99.3008 56.6802 99.8797 56.7922 100.571C57.1404 102.693 57.4864 104.815 57.8347 106.937C57.9391 107.58 58.4828 108.166 59.188 108.073C59.8175 107.989 60.436 107.41 60.3229 106.719C59.9758 104.597 59.6286 102.476 59.2815 100.353Z" fill="#CA9744"/>
<path d="M63.49 113.284L56.3166 111.076C55.6905 110.884 54.9467 111.465 54.8621 112.079C54.7611 112.816 55.1939 113.328 55.8651 113.535L63.0385 115.741C63.6647 115.935 64.4094 115.354 64.493 114.739C64.5951 114.003 64.1613 113.491 63.49 113.284Z" fill="#CA9744"/>
<path d="M76.7361 99.6787C76.6306 99.3975 76.3802 99.1042 76.099 98.9856C75.5332 98.7472 74.6598 98.9207 74.4347 99.581L72.699 104.673C72.587 105.002 72.532 105.304 72.6572 105.644C72.7627 105.925 73.0121 106.218 73.2944 106.337C73.8602 106.575 74.7334 106.402 74.9576 105.742L76.6944 100.649C76.8053 100.319 76.8613 100.018 76.7361 99.6787Z" fill="#CA9744"/>
<path d="M87.5556 101.037C87.3447 100.763 87.0909 100.63 86.7625 100.53C85.3739 100.105 83.9843 99.6809 82.5946 99.2558C82.3068 99.1679 81.8828 99.2986 81.6477 99.4656C81.4027 99.6392 81.1819 99.9566 81.1402 100.259C81.0962 100.584 81.1434 100.941 81.351 101.207C81.562 101.48 81.8147 101.613 82.1431 101.714C83.5327 102.138 84.9224 102.563 86.3109 102.988C86.5999 103.075 87.0239 102.945 87.2579 102.778C87.5029 102.604 87.7236 102.287 87.7655 101.985C87.8093 101.659 87.7621 101.303 87.5556 101.037Z" fill="#CA9744"/>
<path d="M85.7278 111.421C85.2323 111.04 84.3656 111.001 83.9668 111.575L80.8426 116.09C80.6493 116.368 80.5251 116.651 80.5548 117.001C80.5812 117.306 80.7492 117.658 80.9964 117.85C81.493 118.23 82.3597 118.268 82.7563 117.695L85.8816 113.181C86.0738 112.902 86.2001 112.619 86.1682 112.269C86.1419 111.964 85.975 111.611 85.7278 111.421Z" fill="#CA9744"/>
<path d="M75.5619 120.046C75.1752 118.348 74.7896 116.65 74.404 114.953C74.3403 114.67 74.0151 114.376 73.7669 114.258C73.4867 114.127 73.088 114.095 72.7968 114.218C72.5046 114.341 72.2311 114.553 72.1037 114.854C71.9642 115.187 71.9829 115.477 72.0619 115.824L73.2198 120.917C73.2846 121.199 73.6098 121.493 73.8569 121.611C74.1371 121.743 74.5358 121.776 74.827 121.652C75.1192 121.529 75.3938 121.317 75.5201 121.016C75.6607 120.684 75.6409 120.393 75.5619 120.046Z" fill="#CA9744"/>
<path d="M66.9943 119.044C64.9488 119.232 62.9034 119.42 60.8579 119.609C60.2076 119.669 59.6342 120.292 59.7231 120.963C59.8121 121.632 60.3789 122.162 61.0754 122.098C63.1219 121.91 65.1664 121.721 67.2118 121.533C67.8621 121.473 68.4356 120.851 68.3466 120.18C68.2577 119.511 67.6919 118.979 66.9943 119.044Z" fill="#CA9744"/>
<path d="M68.0039 124.274C67.6106 123.766 66.8065 123.539 66.2616 123.976C64.6808 125.249 63.0979 126.523 61.517 127.797C61.0084 128.205 60.7876 128.982 61.2183 129.538C61.6137 130.045 62.4156 130.273 62.9605 129.835C64.5424 128.562 66.1243 127.289 67.7062 126.015C68.2137 125.606 68.4356 124.83 68.0039 124.274Z" fill="#CA9744"/>
<path d="M55.4894 126.611C54.1777 125.224 52.865 123.834 51.5533 122.446C51.348 122.228 50.925 122.134 50.6416 122.158C50.3372 122.185 49.9836 122.352 49.7935 122.6C49.5969 122.856 49.4628 123.181 49.5068 123.511C49.5529 123.861 49.7078 124.106 49.9473 124.359C51.259 125.748 52.5717 127.138 53.8834 128.526C54.0888 128.743 54.5128 128.838 54.7951 128.814C55.1005 128.787 55.4531 128.62 55.6432 128.372C55.8399 128.116 55.9739 127.791 55.9299 127.461C55.8837 127.111 55.7299 126.866 55.4894 126.611Z" fill="#CA9744"/>
<path d="M44.4259 121.242C42.4201 121.548 40.413 121.856 38.4071 122.161C37.7623 122.26 37.1778 122.816 37.2712 123.515C37.3547 124.151 37.9325 124.756 38.6246 124.651C40.6305 124.344 42.6375 124.038 44.6435 123.731C45.2883 123.632 45.8716 123.076 45.7793 122.378C45.6948 121.742 45.118 121.136 44.4259 121.242Z" fill="#CA9744"/>
<path d="M38.6918 117.863C36.6859 117.208 34.6789 116.553 32.673 115.897C32.0534 115.696 31.2932 115.818 31.0087 116.493C30.7736 117.052 30.9405 117.941 31.6041 118.157C33.6111 118.812 35.6171 119.467 37.624 120.121C38.2437 120.323 39.0027 120.202 39.2872 119.526C39.5234 118.968 39.3553 118.079 38.6918 117.863Z" fill="#CA9744"/>
<path d="M75.4487 81.2926C74.7326 81.1937 74.1777 81.6189 73.9943 82.2956C73.4934 84.1477 72.9913 85.9998 72.4904 87.8519C72.3179 88.4836 72.8628 89.2196 73.4934 89.3064C74.2096 89.4052 74.7644 88.9801 74.9478 88.3034C75.4487 86.4513 75.9508 84.5992 76.4517 82.747C76.6231 82.1165 76.0794 81.3794 75.4487 81.2926Z" fill="#CA9744"/>
<path d="M84.6719 82.022C84.4807 81.777 84.1984 81.5485 83.8776 81.5156C82.7593 81.3991 81.6399 81.2838 80.5217 81.1673C80.1832 81.1322 79.8581 81.175 79.5725 81.3772C79.3285 81.5507 79.1089 81.8682 79.066 82.1703C79.021 82.4955 79.0682 82.8514 79.2759 83.1183C79.467 83.3644 79.7494 83.5918 80.0701 83.6248C81.1884 83.7412 82.3078 83.8565 83.4261 83.973C83.7645 84.0081 84.0896 83.9664 84.3741 83.7632C84.6191 83.5907 84.8389 83.2732 84.8805 82.97C84.9245 82.6449 84.8783 82.2889 84.6719 82.022Z" fill="#CA9744"/>
<path d="M80.6501 73.1865C80.0021 73.0975 79.2935 73.4974 79.1957 74.1895C79.0046 75.5406 78.8146 76.8918 78.6234 78.2419C78.5333 78.8879 78.9398 79.6019 79.6264 79.6964C80.2745 79.7854 80.9853 79.3855 81.0819 78.6934C81.272 77.3433 81.462 75.9921 81.6531 74.6409C81.7433 73.995 81.3367 73.281 80.6501 73.1865Z" fill="#CA9744"/>
<g style="mix-blend-mode:multiply">
<path d="M70.7478 202.764H47.1557C43.1076 202.764 39.7955 199.452 39.7955 195.405V171.814C39.7955 167.766 43.1076 164.454 47.1557 164.454H70.7478C74.7959 164.454 78.1058 167.766 78.1058 171.814V195.405C78.1058 199.452 74.7959 202.764 70.7478 202.764Z" fill="#FE8C00"/>
</g>
<path d="M67.3097 68.4826C66.6539 67.4411 65.9981 66.3997 65.3422 65.3572C64.994 64.8036 64.114 64.6619 63.6 65.0595C63.0419 65.4934 62.9298 66.2086 63.3034 66.8018C63.9592 67.8432 64.615 68.8846 65.2708 69.926C65.6191 70.4808 66.5001 70.6225 67.012 70.2237C67.57 69.7909 67.6832 69.0758 67.3097 68.4826Z" fill="#CA9744"/>
<path d="M66.277 72.7581C65.7552 72.3571 64.9467 72.3626 64.5161 72.9119C63.5867 74.1049 62.6551 75.2968 61.7236 76.4887C61.3215 77.0039 61.3303 77.8278 61.8785 78.2485C62.3992 78.6495 63.2088 78.644 63.6383 78.0947C64.5688 76.9017 65.5004 75.7098 66.4308 74.5179C66.8328 74.0027 66.8251 73.1788 66.277 72.7581Z" fill="#CA9744"/>
</svg>
