<svg width="40" height="39" viewBox="0 0 40 39" fill="none" xmlns="http://www.w3.org/2000/svg">
<circle cx="19.8694" cy="19.3872" r="19.3872" transform="rotate(180 19.8694 19.3872)" fill="#F8A435"/>
<path d="M15.8817 23.7744V17.2744C15.8817 17.175 15.9212 17.0796 15.9915 17.0092C16.0618 16.9389 16.1572 16.8994 16.2567 16.8994C16.3561 16.8994 16.4515 16.9389 16.5218 17.0092C16.5922 17.0796 16.6317 17.175 16.6317 17.2744V22.8694L23.9917 15.5094C24.0628 15.4432 24.1568 15.4071 24.2539 15.4088C24.3511 15.4105 24.4438 15.4499 24.5125 15.5186C24.5812 15.5873 24.6205 15.68 24.6223 15.7772C24.624 15.8743 24.5879 15.9683 24.5217 16.0394L17.1617 23.3994H22.7567C22.8561 23.3994 22.9515 23.4389 23.0218 23.5092C23.0922 23.5796 23.1317 23.675 23.1317 23.7744C23.1317 23.8739 23.0922 23.9693 23.0218 24.0396C22.9515 24.1099 22.8561 24.1494 22.7567 24.1494H16.2567C16.1572 24.1494 16.0618 24.1099 15.9915 24.0396C15.9212 23.9693 15.8817 23.8739 15.8817 23.7744Z" fill="white"/>
</svg>
