<svg width="32" height="32" viewBox="0 0 32 32" fill="none" xmlns="http://www.w3.org/2000/svg">
<path d="M3.33337 5.66675C3.33337 5.40153 3.43873 5.14718 3.62627 4.95964C3.8138 4.7721 4.06816 4.66675 4.33337 4.66675H5.07737C6.34404 4.66675 7.10404 5.51875 7.53737 6.31075C7.82671 6.83875 8.03604 7.45075 8.20004 8.00541L8.33337 8.00008H24.9974C26.104 8.00008 26.904 9.05875 26.6 10.1241L24.1627 18.6694C23.9442 19.4359 23.4819 20.1103 22.8458 20.5905C22.2096 21.0707 21.4344 21.3306 20.6374 21.3307H12.7067C11.9034 21.3308 11.1222 21.067 10.4834 20.5799C9.84457 20.0928 9.38337 19.4094 9.17071 18.6347L8.15737 14.9387L6.47737 9.27475L6.47604 9.26408C6.26804 8.50808 6.07337 7.80008 5.78271 7.27208C5.50404 6.75875 5.28004 6.66675 5.07871 6.66675H4.33337C4.06816 6.66675 3.8138 6.56139 3.62627 6.37385C3.43873 6.18632 3.33337 5.93196 3.33337 5.66675ZM12 28.0001C12.7073 28.0001 13.3856 27.7191 13.8857 27.219C14.3858 26.7189 14.6667 26.0407 14.6667 25.3334C14.6667 24.6262 14.3858 23.9479 13.8857 23.4478C13.3856 22.9477 12.7073 22.6667 12 22.6667C11.2928 22.6667 10.6145 22.9477 10.1144 23.4478C9.61433 23.9479 9.33337 24.6262 9.33337 25.3334C9.33337 26.0407 9.61433 26.7189 10.1144 27.219C10.6145 27.7191 11.2928 28.0001 12 28.0001ZM21.3334 28.0001C22.0406 28.0001 22.7189 27.7191 23.219 27.219C23.7191 26.7189 24 26.0407 24 25.3334C24 24.6262 23.7191 23.9479 23.219 23.4478C22.7189 22.9477 22.0406 22.6667 21.3334 22.6667C20.6261 22.6667 19.9479 22.9477 19.4478 23.4478C18.9477 23.9479 18.6667 24.6262 18.6667 25.3334C18.6667 26.0407 18.9477 26.7189 19.4478 27.219C19.9479 27.7191 20.6261 28.0001 21.3334 28.0001Z" fill="black"/>
</svg>
