<svg width="206" height="168" viewBox="0 0 206 168" fill="none" xmlns="http://www.w3.org/2000/svg">
<circle opacity="0.1" cx="103.689" cy="106" r="62" fill="#FE8C00"/>
<circle cx="34.689" cy="59" r="4" fill="#B468FF"/>
<circle cx="110.189" cy="15.5" r="8.5" fill="#B468FF"/>
<circle cx="186.689" cy="95" r="8" fill="#FE8C00"/>
<path d="M151.689 5L153.771 10.9183L159.689 13L153.771 15.0817L151.689 21L149.607 15.0817L143.689 13L149.607 10.9183L151.689 5Z" fill="#FB46FF"/>
<path d="M28.3424 78.5306C28.3424 78.5306 26.696 85.177 18.8984 85.4631C13.7 85.6539 12.4771 80.2666 6.40446 83.9134C3.70007 85.5374 1.68896 90.4719 1.68896 90.4719" stroke="#FB46FF" stroke-width="3" stroke-linecap="round"/>
<path d="M31.189 117L34.0771 124.612L41.689 127.5L34.0771 130.388L31.189 138L28.3008 130.388L20.689 127.5L28.3008 124.612L31.189 117Z" fill="#FE8C00"/>
<circle cx="100.689" cy="3" r="2" fill="#FB46FF"/>
<path d="M38.0133 3.76226C38.9964 12.3082 58.8559 20.8261 59.2984 13.8343C59.9996 2.75464 33.2161 11.3933 69.7565 25.9123" stroke="#FE8C00" stroke-width="3" stroke-linecap="round"/>
<path d="M184.689 133.81C189.653 133.106 200.477 134.293 204.058 144.676" stroke="#B468FF" stroke-width="3" stroke-linecap="round"/>
<path d="M179.768 37.3673C179.768 37.3673 187.027 41.06 190.069 37.7505C192.844 34.7316 189.635 30.02 192.992 27.6657C195.724 25.75 201.511 27.0118 201.511 27.0118" stroke="#FE8C00" stroke-width="3" stroke-linecap="round"/>
<rect x="176.689" y="74" width="7" height="7" rx="2" fill="#FE8C00"/>
<path d="M96.0356 63.5C100.783 61.5337 106.099 61.472 110.881 63.3154L111.342 63.5L128.33 70.5361C133.077 72.5026 136.879 76.2178 138.958 80.9033L139.153 81.3594L146.189 98.3467C148.155 103.094 148.217 108.41 146.374 113.192L146.189 113.653L139.153 130.641C137.186 135.388 133.471 139.19 128.786 141.269L128.33 141.464L111.342 148.5C106.595 150.466 101.279 150.528 96.4966 148.685L96.0356 148.5L79.0483 141.464C74.3011 139.497 70.4988 135.782 68.4204 131.097L68.2251 130.641L61.189 113.653C59.2226 108.906 59.1609 103.59 61.0044 98.8076L61.189 98.3467L68.2251 81.3594C70.1916 76.6122 73.9068 72.8098 78.5923 70.7314L79.0483 70.5361L96.0356 63.5Z" fill="#F5F5FF" stroke="#FE8C00" stroke-width="8"/>
<path fill-rule="evenodd" clip-rule="evenodd" d="M115.569 93.88C116.129 93.3251 116.885 93.0128 117.673 93.0106C118.461 93.0085 119.218 93.3166 119.781 93.8684C120.344 94.4202 120.667 95.1714 120.681 95.9595C120.694 96.7476 120.397 97.5093 119.853 98.08L103.885 118.04C103.611 118.336 103.279 118.573 102.911 118.737C102.543 118.902 102.145 118.991 101.742 118.998C101.339 119.006 100.938 118.932 100.564 118.781C100.19 118.63 99.8503 118.405 99.5651 118.12L88.9851 107.536C88.6904 107.261 88.454 106.93 88.29 106.562C88.126 106.194 88.0378 105.797 88.0307 105.394C88.0236 104.991 88.0977 104.591 88.2486 104.218C88.3995 103.844 88.6241 103.505 88.909 103.22C89.1938 102.935 89.5332 102.71 89.9067 102.56C90.2803 102.409 90.6804 102.335 91.0832 102.342C91.486 102.349 91.8833 102.437 92.2513 102.601C92.6193 102.765 92.9505 103.001 93.2251 103.296L101.601 111.668L115.493 93.968C115.518 93.937 115.545 93.9076 115.573 93.88H115.569Z" fill="#FE8C00"/>
</svg>
