<svg width="23" height="28" viewBox="0 0 23 28" fill="none" xmlns="http://www.w3.org/2000/svg">
<path d="M11.5007 1C11.0385 1.00053 10.5953 1.18424 10.2683 1.51088C9.9413 1.83752 9.75708 2.28046 9.75602 2.74267H2.47402C1.86469 2.74267 1.37402 3.23267 1.37402 3.842V25.9013C1.37402 26.51 1.86469 27 2.47402 27H20.526C21.1354 27 21.626 26.51 21.626 25.9013V3.84133C21.626 3.23267 21.1354 2.74267 20.526 2.74267H13.2454C13.2443 2.28046 13.0601 1.83752 12.7331 1.51088C12.406 1.18424 11.9629 1.00053 11.5007 1Z" stroke="#848B8B" stroke-linecap="round" stroke-linejoin="round"/>
<path d="M15.4907 2.74341V4.99141H7.51074V2.74341" stroke="#848B8B" stroke-linecap="round" stroke-linejoin="round"/>
<path d="M6.97339 8.11084H16.0274M6.97339 10.9588H16.0274M4.37939 13.9222H5.07539C5.68473 13.9222 6.05673 14.4235 6.17473 15.0208L7.18806 20.1515C7.40139 21.2328 8.01473 21.7155 9.05473 21.7155H14.2401C15.2807 21.7155 15.8934 21.2328 16.1074 20.1515L17.0687 15.2835L17.0921 15.1655H6.23673M10.5501 17.0308H13.0567M14.3361 23.6755C14.3361 23.8109 14.2823 23.9408 14.1865 24.0366C14.0907 24.1324 13.9608 24.1862 13.8254 24.1862C13.69 24.1862 13.5601 24.1324 13.4643 24.0366C13.3685 23.9408 13.3147 23.8109 13.3147 23.6755C13.3147 23.5401 13.3685 23.4102 13.4643 23.3144C13.5601 23.2186 13.69 23.1648 13.8254 23.1648C13.9608 23.1648 14.0907 23.2186 14.1865 23.3144C14.2823 23.4102 14.3361 23.5401 14.3361 23.6755ZM10.0207 23.6755C10.0207 23.8109 9.96693 23.9408 9.87116 24.0366C9.77539 24.1324 9.6455 24.1862 9.51006 24.1862C9.37462 24.1862 9.24473 24.1324 9.14897 24.0366C9.0532 23.9408 8.99939 23.8109 8.99939 23.6755C8.99939 23.3935 9.22806 23.1648 9.51006 23.1648C9.79206 23.1648 10.0207 23.3935 10.0207 23.6755Z" stroke="#848B8B" stroke-linecap="round" stroke-linejoin="round"/>
</svg>
